<?xml version="1.0" encoding="utf-8"?>
<!-- Generator: Adobe Illustrator 24.0.2, SVG Export Plug-In . SVG Version: 6.00 Build 0)  -->
<svg version="1.1" id="tesseract" xmlns="http://www.w3.org/2000/svg" xmlns:xlink="http://www.w3.org/1999/xlink" x="0px"
  y="0px" viewBox="0 0 164.9 190.8" style="enable-background:new 0 0 164.9 190.8;" xml:space="preserve">
  <style type="text/css">
    .st0 {
      stroke: #7E7E7D;
      stroke-width: 5;
    }

    .st1 {
      stroke: #504F4E;
      stroke-width: 5;
    }

    .st2 {
      stroke: rgba(148, 148, 148, 1.0);
      stroke-width: 5;
    }

    .st3 {
      stroke: rgba(148, 148, 148, 1.0);
      stroke-width: 5;
    }
  </style>
  <g id="vertices">
    <line class="st0" x1="2.3" y1="142.5" x2="43.1" y2="120.1" />
    <line class="st0" x1="122.7" y1="120.5" x2="163.1" y2="142.6" />
    <line class="st0" x1="83.1" y1="2.7" x2="83.1" y2="50.8" />
  </g>
  <g id="inner_cube">
    <line class="st1" x1="43.3" y1="73.7" x2="84.4" y2="50" />
    <line class="st1" x1="43" y1="121.3" x2="43.3" y2="73.7" />
    <line class="st1" x1="83.1" y1="142.1" x2="41.8" y2="119.1" />
    <line class="st1" x1="123.9" y1="119.5" x2="83.1" y2="142.1" />
    <line class="st1" x1="122.7" y1="73.4" x2="122.7" y2="121.7" />
    <line class="st1" x1="81.9" y1="50.1" x2="122.7" y2="73.4" />
  </g>
  <g id="outer_cube">
    <line class="st2" x1="2.8" y1="50.4" x2="83.1" y2="96.6" />
    <line class="st2" x1="162.1" y1="50.4" x2="83.1" y2="96.6" />
    <line class="st2" x1="83.1" y1="188.4" x2="83.1" y2="96.6" />
    <line class="st3" x1="81.8" y1="2.7" x2="162.5" y2="51.4" />
    <line class="st3" x1="2.2" y1="51.6" x2="84.3" y2="2.9" />
    <line class="st3" x1="3" y1="143.5" x2="3.4" y2="49.5" />
    <line class="st3" x1="84.4" y1="188.4" x2="1.7" y2="141.3" />
    <line class="st3" x1="163.6" y1="141.1" x2="81.9" y2="188.4" />
    <line class="st3" x1="161.4" y1="49.3" x2="162.3" y2="143.2" />
  </g>
</svg>