<?xml version="1.0" encoding="utf-8"?>
<!-- Generator: Adobe Illustrator 24.0.2, SVG Export Plug-In . SVG Version: 6.00 Build 0)  -->
<svg version="1.1" id="Layer_1" xmlns="http://www.w3.org/2000/svg" xmlns:xlink="http://www.w3.org/1999/xlink" x="0px"
	y="0px" viewBox="0 0 130.8 100.6" style="enable-background:new 0 0 130.8 100.6;" xml:space="preserve">
	<path style="fill:#7F95FF;" d="M34.6,79.7c0.1-0.1,0.1-0.3,0-0.5c-0.1-0.1-0.2-0.2-0.4-0.2c-3.5,0-17.1,0-26,0c-2.2,0-4.2-0.9-5.8-2.4
	C0.9,75.1,0,73,0,70.8c0-11.3,0-31,0-37.9c0-1.6,0.4-3.2,1.2-4.6c2.9-5,10.1-17.7,13.9-24.2C16.6,1.6,19.3,0,22.3,0h84.4
	c1.8,0,3.4,1,4.3,2.5c0.9,1.6,0.8,3.5-0.1,5c-3.1,5-7,11.3-9.1,14.5c-0.3,0.4-0.3,1,0,1.5c0.3,0.5,0.7,0.7,1.3,0.7
	c4.5,0,14,0,20.6,0c4,0,7.2,3.2,7.2,7.2c0,9.8,0,27.1,0,36.4c0,4.1-1,8.1-3,11.6c-2.5,4.5-6.5,10.8-9,15.4c-2,3.6-5.8,5.8-9.9,5.8
	c-16.7,0-60,0-79.2,0c-1.8,0-3.5-1-4.3-2.6c-0.9-1.6-0.7-3.5,0.3-5C29.1,87.9,33.2,81.8,34.6,79.7z M46.8,75.9
	c-1.7,0-3.2,0.8-4.2,2.2c-2.6,3.7-8,11.4-10.7,15.2c-0.3,0.5-0.4,1-0.1,1.5c0.3,0.5,0.8,0.8,1.3,0.8c12.1,0,59.2,0,74,0
	c2.7,0,5.2-1.5,6.6-3.8c1.9-3.4,5.3-8.3,7.2-11.7c0.5-0.9,0.5-1.9,0-2.8c-0.5-0.9-1.4-1.4-2.4-1.4C103.5,75.9,58.2,75.9,46.8,75.9z
	 M25.9,54.7c-2.8,0-5.4,1.3-7.1,3.5c-2.4,3.1-6.1,7.8-8.8,11.2c-0.7,0.9-0.8,2-0.3,3c0.5,1,1.5,1.6,2.6,1.6c9.1,0,25.6,0,25.6,0
	c0.9-1.9,2.8-3.1,4.9-3.1c10.1,0,39.6,0,49.4,0c2,0,3.9-1,5-2.8c1.9-3.1,4.9-8,6.7-11c0.3-0.5,0.3-1.2,0-1.8
	c-0.3-0.6-0.9-0.9-1.5-0.9C89.5,54.5,40.9,54.7,25.9,54.7z M104.4,66.8c-0.5,0.8-0.5,1.9-0.1,2.7c0.5,0.8,1.4,1.4,2.3,1.4
	c4.2,0,10.3,0,14.3,0c1.1,0,2.2-0.4,2.9-1.2c0.8-0.8,1.2-1.8,1.2-3c0-8,0-25.5,0-33.4c0-2.3-1.8-4.1-4.1-4.1c-13.1,0-53.9,0-66.9,0
	c-2.5,0-4.8,1.3-6.2,3.4c-2.4,3.7-5.1,9.7-7.5,13.4c-0.4,0.7-0.4,1.5-0.1,2.2c0.4,0.7,1.1,1.1,1.9,1.1c11.8,0,46.3,0,63.5,0
	c1.9,0,3.7,1,4.6,2.7c0.9,1.7,0.9,3.7-0.1,5.3C108.4,60.5,106.1,64.1,104.4,66.8z M92.8,24.2c0.5,0,1.1-0.3,1.4-0.7
	c1.6-2.4,6.7-10.3,9.5-14.5c0.4-0.6,0.4-1.3,0.1-1.9c-0.3-0.6-0.9-1-1.6-1C89.8,6,47.4,6,29.7,6c-2.1,0-4,0.8-5.5,2.3
	c-1.5,1.5-2.3,3.4-2.3,5.5c0,7.8,0,19.6,0,27.6c0,2.2,0.9,4.2,2.5,5.7c1.6,1.5,3.7,2.3,5.9,2.2c0,0,1,0,1,0
	c0-0.2,8.2-14.4,12.8-21.4c1.5-2.3,4.1-3.8,6.9-3.8C61.6,24.2,87.7,24.2,92.8,24.2z" />
</svg>