<?xml version="1.0" encoding="utf-8"?>
<!-- Generator: Adobe Illustrator 24.0.2, SVG Export Plug-In . SVG Version: 6.00 Build 0)  -->
<svg version="1.1" id="Layer_1" xmlns="http://www.w3.org/2000/svg" xmlns:xlink="http://www.w3.org/1999/xlink" x="0px" y="0px"
	 viewBox="0 0 147.6 177.4" style="enable-background:new 0 0 147.6 177.4;" xml:space="preserve">
<style type="text/css">
	.st0{fill:#7F95FF;}
</style>
<path class="st0" d="M138.2,23.5C121.7-0.1,89.2-7.1,65.7,7.9L24.4,34.3C13.1,41.3,5.4,52.9,3,66C1,76.9,2.7,88.2,7.9,98
	c-3.5,5.4-6,11.4-7.1,17.7c-2.4,13.4,0.7,27.2,8.6,38.1c16.4,23.6,49,30.6,72.5,15.6l41.3-26.3c11.3-7.1,19-18.6,21.4-31.7
	c2-10.9,0.3-22.2-4.9-32c3.5-5.4,6-11.4,7.1-17.7C149.2,48.3,146.1,34.6,138.2,23.5z M126.4,57.3c-0.3,1.3-0.6,2.6-1,3.9l-0.8,2.4
	l-2.1-1.6c-4.9-3.6-10.4-6.3-16.2-8.1c0,0-1.4-0.5-1.4-0.5v-1.5c0.2-2.1-0.4-4.3-1.7-6.1c-2.3-3.4-6.6-4.9-10.6-3.9
	c-0.9,0.2-1.7,0.6-2.5,1.1L48.8,69.3c-2.1,1.2-3.5,3.3-3.9,5.7c-0.4,2.4,0.2,4.9,1.6,6.9c2.3,3.4,6.6,4.9,10.6,3.9
	c0.9-0.2,1.7-0.6,2.5-1.1l15.8-10c2.6-1.7,5.4-2.9,8.4-3.7c13.3-3.4,27.4,1.8,35.2,13.1c4.8,6.7,6.6,15,5.2,23
	c-1.4,7.9-6.1,14.8-12.9,19.1L70,152.5c-2.6,1.7-5.4,2.9-8.4,3.7c-13.3,3.4-27.4-1.8-35.2-13.1c-4.8-6.7-6.6-15-5.2-23
	c0.3-1.3,0.6-2.6,1-3.9l0.8-2.4l2.1,1.6c4.9,3.6,10.4,6.3,16.2,8.1c0,0,1.4,0.5,1.4,0.5v1.5c-0.2,2.1,0.4,4.3,1.7,6.1
	c2.3,3.4,6.6,4.9,10.6,3.9c0.9-0.2,1.7-0.6,2.5-1.1l41.3-26.3c2.1-1.3,3.5-3.4,3.9-5.8c0.4-2.4-0.2-4.9-1.6-6.9
	c-2.3-3.4-6.6-4.9-10.6-3.9c-0.9,0.2-1.7,0.6-2.5,1.1l-15.8,10.1c-2.6,1.7-5.4,2.9-8.4,3.7c-13.3,3.4-27.4-1.8-35.2-13.1
	c-4.8-6.7-6.6-15-5.2-23c1.4-7.9,6.1-14.8,12.9-19.1l41.3-26.3c2.6-1.7,5.4-2.9,8.4-3.7c13.3-3.4,27.4,1.8,35.2,13.1
	C126,41,127.8,49.3,126.4,57.3z"/>
</svg>
