<?xml version="1.0" encoding="UTF-8"?>
<svg viewBox="0 0 120 136" version="1.1" xmlns="http://www.w3.org/2000/svg" xmlns:xlink="http://www.w3.org/1999/xlink">
    <defs>
        <path
            d="M113.8653,106.64105 L67.5565,133.37785 C63.1738,135.90765 57.7745,135.90765 53.3919,133.37785 L7.0822,106.64105 C2.6996,104.11045 -4.91085111e-15,99.43505 -4.60099098e-15,94.37465 L-1.32667732e-15,40.90105 C-1.01681719e-15,35.84065 2.6996,31.16455 7.0822,28.63475 L53.3919,1.89795 C57.7745,-0.63265 63.1738,-0.63265 67.5565,1.89795 L113.8653,28.63475 C118.248,31.16455 120.9476,35.84065 120.9476,40.90105 L120.9476,94.37465 C120.9476,99.43505 118.248,104.11045 113.8653,106.64105 Z M88.4639,45.0833 C84.9908,54.8825 81.4929,64.7065 77.9959,74.5412 L76.886,74.5412 C73.4006,64.6826 69.9035,54.8347 66.4181,45 L55.5444,45 C52.0111,54.9427 48.5141,64.7897 45.0171,74.6492 L44.002,74.6492 C40.4572,64.6941 36.9124,54.7398 33.4862,45.1311 L20.5,45.1311 C26.8146,63.214 32.9734,80.8434 39.1321,98.4728 L49.8507,98.4728 L60.4622,68.6446 L61.5366,68.6446 C65.0814,78.6475 68.6147,88.662 72.0878,98.4488 L82.8304,98.4488 C89.013,80.7477 95.1718,63.1068 101.4625,45.0833 L88.4639,45.0833 Z"
            id="path-1"></path>
    </defs>
    <g id="Page-3" stroke="none" stroke-width="1" fill="none" fill-rule="evenodd">
        <g id="Webiny-Logo-Icon" transform="translate(-95.000000, -227.000000)">
            <g id="Logo" transform="translate(95.000000, 226.598492)">
                <g id="Webiny-Icon-Orange" transform="translate(-0.000000, 0.901508)">
                    <mask id="mask-2" fill="white">
                        <use xlink:href="#path-1"></use>
                    </mask>
                    <use id="Mask" fill="#7f95ff" fill-rule="evenodd" xlink:href="#path-1"></use>
                    <g id="Orange" mask="url(#mask-2)"></g>
                </g>
            </g>
        </g>
    </g>
</svg>